<?xml version="1.0" encoding="UTF-8"?>
<svg version="1.1" xmlns="http://www.w3.org/2000/svg" width="326" height="269">
<path d="M0 0 C12.2232062 -0.06989942 24.44636387 -0.12301236 36.66973019 -0.15543652 C42.34719403 -0.17100836 48.02451985 -0.19208938 53.7019043 -0.22631836 C59.19382116 -0.25921717 64.68560632 -0.27691656 70.17761421 -0.28463173 C72.25969067 -0.29012099 74.34176096 -0.30083787 76.42378044 -0.31719017 C92.98056038 -0.44190668 109.71397845 0.14365027 125.05859375 7.1640625 C125.93837891 7.56367188 126.81816406 7.96328125 127.72460938 8.375 C128.61986328 8.7875 129.51511719 9.2 130.4375 9.625 C131.35982422 10.04523437 132.28214844 10.46546875 133.23242188 10.8984375 C135.49031383 11.92794264 137.74605959 12.96187939 140 14 C140 14.99 140 15.98 140 17 C138.015625 18.83984375 138.015625 18.83984375 135.25 20.9375 C125.84773089 28.39865548 117.04504795 36.5007062 111 47 C109.14375 46.566875 109.14375 46.566875 107.25 46.125 C105.50062779 45.74708219 103.75059271 45.37222327 102 45 C100.86884766 44.73993164 100.86884766 44.73993164 99.71484375 44.47460938 C88.53602137 42.23711711 77.10392991 42.53965149 65.75 42.375 C54.48875 42.189375 54.48875 42.189375 43 42 C43 69.06 43 96.12 43 124 C45.31 122.35 47.62 120.7 50 119 C50.99 119.495 50.99 119.495 52 120 C50.88121617 121.17262904 49.75476949 122.33795138 48.625 123.5 C47.99851563 124.1496875 47.37203125 124.799375 46.7265625 125.46875 C45 127 45 127 43 127 C43 152.74 43 178.48 43 205 C50.63125 204.896875 58.2625 204.79375 66.125 204.6875 C68.50348145 204.66260498 70.88196289 204.63770996 73.33251953 204.61206055 C84.23951858 204.45112038 94.46131046 204.06168419 105 201 C105.72380859 200.80172607 106.44761719 200.60345215 107.19335938 200.39916992 C125.72306398 194.99141162 140.75548554 182.15089457 151 166 C161.49849666 146.81147254 165.68849033 124.24522972 159.94140625 102.8671875 C158.66577747 98.98207743 157.20357225 95.18787157 155.57421875 91.4375 C154.80249137 88.16159602 155.37961899 86.93888281 157 84 C158.66017851 81.79201847 160.32150299 79.70703643 162.125 77.625 C162.6185498 77.05136719 163.11209961 76.47773437 163.62060547 75.88671875 C169.42709943 69.23780259 176.32549554 61.72301174 185 59 C188.12968328 59.7675459 188.9473848 60.91927531 190.7109375 63.625 C206.00768139 94.64938198 210.42727033 129.44924615 199.4921875 162.8046875 C188.74831774 193.11866329 166.22263455 220.82172945 137 235 C120.24358371 242.26492279 103.85178193 247.17321925 85.47875977 247.12939453 C84.56236221 247.13114685 83.64596466 247.13289917 82.70179749 247.13470459 C79.69831401 247.13907634 76.69489023 247.1362034 73.69140625 247.1328125 C71.59773243 247.13348648 69.50405869 247.13445729 67.41038513 247.13571167 C63.03701019 247.13718195 58.66365575 247.13505412 54.2902832 247.13037109 C48.67212848 247.12464944 43.05402128 247.12797237 37.43586826 247.13394356 C33.12006772 247.13754621 28.80427858 247.13641238 24.48847771 247.13381577 C22.41552665 247.13314695 20.34257457 247.13397333 18.26962471 247.13629532 C15.3848811 247.13881965 12.50021622 247.13498551 9.61547852 247.12939453 C8.32126984 247.13243088 8.32126984 247.13243088 7.00091553 247.13552856 C1.11426767 247.11426767 1.11426767 247.11426767 0 246 C-0.09807612 242.83973225 -0.12990232 239.70130003 -0.12025452 236.54063416 C-0.12110894 235.53522585 -0.12196337 234.52981754 -0.12284368 233.49394232 C-0.12450152 230.097425 -0.11897217 226.70095619 -0.11352539 223.30444336 C-0.11324356 220.88068137 -0.11340117 218.45691929 -0.1139679 216.03315735 C-0.11419621 210.80079103 -0.11134486 205.56843585 -0.10573006 200.33607292 C-0.09761718 192.7708721 -0.09500006 185.2056773 -0.09374207 177.6404726 C-0.09155121 165.36765215 -0.08489022 153.09483833 -0.07543945 140.82202148 C-0.0662662 128.89721714 -0.05918494 116.97241458 -0.05493164 105.04760742 C-0.05453756 103.94580014 -0.05453756 103.94580014 -0.05413551 102.82173412 C-0.05283051 99.13692324 -0.05156679 95.45211234 -0.05032361 91.76730144 C-0.03994995 61.17819621 -0.02225661 30.58909902 0 0 Z " fill="#1E1A18" transform="translate(12,12)"/>
<path d="M0 0 C0 81.51 0 163.02 0 247 C-116.54644809 247 -116.54644809 247 -139 233 C-139.66 232.01 -140.32 231.02 -141 230 C-140.35675781 229.57332031 -139.71351563 229.14664063 -139.05078125 228.70703125 C-127.74383503 220.8841084 -117.97340601 211.22075682 -110 200 C-103.65352241 201.26929552 -97.32849623 202.64389367 -91 204 C-66.745 204.495 -66.745 204.495 -42 205 C-42 151.21 -42 97.42 -42 42 C-90.69588818 41.17180339 -90.69588818 41.17180339 -132 60 C-133.05574219 60.77923828 -133.05574219 60.77923828 -134.1328125 61.57421875 C-149.52093282 73.94078508 -159.08040802 92.51154626 -161.6015625 111.9140625 C-163.15341366 126.51525767 -162.13163692 141.59675247 -155.671875 154.984375 C-154.8239091 157.52827269 -154.99655219 158.51951453 -156 161 C-163.5654348 173.04933884 -173.16721928 181.37238389 -185 189 C-185.66 189 -186.32 189 -187 189 C-194.94084117 173.65033431 -200.6170223 158.97250615 -204 142 C-204.1757959 141.20835449 -204.3515918 140.41670898 -204.53271484 139.60107422 C-208.5923053 117.00395995 -203.57407776 92.55956748 -194 72 C-193.46503906 70.81148438 -192.93007812 69.62296875 -192.37890625 68.3984375 C-178.87602465 39.77108114 -152.48426345 17.05502311 -123 6 C-82.67718565 -7.04237733 -45.57370672 0 0 0 Z " fill="#211D1B" transform="translate(312,12)"/>
<path d="M0 0 C31.68 0 63.36 0 96 0 C96 0.33 96 0.66 96 1 C64.65 1 33.3 1 1 1 C1.33 5.95 1.66 10.9 2 16 C2.0909744 19.41420501 2.15803048 22.80954879 2.16494751 26.22265625 C2.17059105 27.14116584 2.1762346 28.05967543 2.18204916 29.00601864 C2.19947727 32.02484079 2.21037958 35.0436475 2.22119141 38.0625 C2.23243063 40.2503733 2.24406384 42.4382446 2.25605774 44.62611389 C2.28714987 50.52425306 2.31239722 56.42240337 2.3362546 62.32057571 C2.35677988 67.25405499 2.38028062 72.18751827 2.40379179 77.12098408 C2.45921954 88.75495644 2.50997999 100.38894253 2.55761719 112.02294922 C2.60679591 124.0172644 2.66311372 136.01152344 2.72303832 148.0057888 C2.77437758 158.3228725 2.82170697 168.63996904 2.86572587 178.95708656 C2.89199897 185.11129666 2.91969933 191.26549147 2.9510994 197.41967773 C2.98037562 203.19814759 3.00462517 208.97661716 3.02499962 214.75512505 C3.03329723 216.8743307 3.04334911 218.99353032 3.05528831 221.11271858 C3.0713056 224.00622138 3.08096042 226.89967855 3.08901978 229.79321289 C3.09820228 231.04880257 3.09820228 231.04880257 3.10757029 232.32975769 C3.10888376 233.5019838 3.10888376 233.5019838 3.11022377 234.69789124 C3.11309918 235.36452317 3.11597459 236.03115511 3.11893713 236.71798801 C2.95673213 239.8301679 2.44072608 242.91491741 2 246 C32.69 246 63.38 246 95 246 C95 246.33 95 246.66 95 247 C82.76119671 247.02312166 70.52239857 247.04091418 58.28357792 247.05181217 C52.60123488 247.05704139 46.91890673 247.06413973 41.23657227 247.07543945 C35.75770864 247.08626696 30.27885938 247.09227654 24.79998589 247.09487724 C22.70470389 247.09673174 20.60942272 247.10035282 18.5141468 247.10573006 C15.59022416 247.11293868 12.66636167 247.11399102 9.74243164 247.11352539 C8.8670575 247.11712067 7.99168335 247.12071594 7.08978271 247.12442017 C1.11405216 247.11405216 1.11405216 247.11405216 0 246 C-0.09807612 242.83973225 -0.12990232 239.70130003 -0.12025452 236.54063416 C-0.12110894 235.53522585 -0.12196337 234.52981754 -0.12284368 233.49394232 C-0.12450152 230.097425 -0.11897217 226.70095619 -0.11352539 223.30444336 C-0.11324356 220.88068137 -0.11340117 218.45691929 -0.1139679 216.03315735 C-0.11419621 210.80079103 -0.11134486 205.56843585 -0.10573006 200.33607292 C-0.09761718 192.7708721 -0.09500006 185.2056773 -0.09374207 177.6404726 C-0.09155121 165.36765215 -0.08489022 153.09483833 -0.07543945 140.82202148 C-0.0662662 128.89721714 -0.05918494 116.97241458 -0.05493164 105.04760742 C-0.05453756 103.94580014 -0.05453756 103.94580014 -0.05413551 102.82173412 C-0.05283051 99.13692324 -0.05156679 95.45211234 -0.05032361 91.76730144 C-0.03994995 61.17819516 -0.02151109 30.58910105 0 0 Z " fill="#898686" transform="translate(12,12)"/>
<path d="M0 0 C0.66 0.33 1.32 0.66 2 1 C0.88121617 2.17262904 -0.24523051 3.33795138 -1.375 4.5 C-2.00148438 5.1496875 -2.62796875 5.799375 -3.2734375 6.46875 C-5 8 -5 8 -7 8 C-7 33.74 -7 59.48 -7 86 C7.52 86 22.04 86 37 86 C37 86.33 37 86.66 37 87 C22.15 87 7.3 87 -8 87 C-9.52083091 83.95833818 -9.14178473 80.7972875 -9.1328125 77.4609375 C-9.13413177 76.68348175 -9.13545105 75.906026 -9.1368103 75.10501099 C-9.13874598 72.52830181 -9.13233563 69.95169842 -9.125 67.375 C-9.12411377 66.49739014 -9.12322754 65.61978027 -9.12231445 64.71557617 C-9.09885504 44.8021451 -8.60157667 24.90322812 -8 5 C-7.38640625 4.70351562 -6.7728125 4.40703125 -6.140625 4.1015625 C-3.88567831 2.94117022 -1.99071996 1.56413711 0 0 Z " fill="#949191" transform="translate(62,131)"/>
<path d="M0 0 C0.66 0.33 1.32 0.66 2 1 C0.88121617 2.17262904 -0.24523051 3.33795138 -1.375 4.5 C-2.00148438 5.1496875 -2.62796875 5.799375 -3.2734375 6.46875 C-5 8 -5 8 -7 8 C-7 23.51 -7 39.02 -7 55 C-7.33 55 -7.66 55 -8 55 C-8 38.5 -8 22 -8 5 C-6.68 4.34 -5.36 3.68 -4 3 C-2.64886795 2.02418241 -1.31053056 1.02970259 0 0 Z " fill="#FFFFFF" transform="translate(62,131)"/>
<path d="M0 0 C0.99 0.33 1.98 0.66 3 1 C3 1.66 3 2.32 3 3 C2.401875 3.268125 1.80375 3.53625 1.1875 3.8125 C-1.04267613 4.88022403 -1.04267613 4.88022403 -2.5625 6.625 C-4 8 -4 8 -7 8 C-6.34 8.33 -5.68 8.66 -5 9 C-5.33 9.99 -5.66 10.98 -6 12 C-6.66 12 -7.32 12 -8 12 C-8.33 12.66 -8.66 13.32 -9 14 C-11.97 13.505 -11.97 13.505 -15 13 C-13.53471687 9.13698083 -11.55307561 7.95419158 -8 6 C-7.34 5.34 -6.68 4.68 -6 4 C-5.01 4 -4.02 4 -3 4 C-3 3.34 -3 2.68 -3 2 C-2.01 1.34 -1.02 0.68 0 0 Z " fill="#141211" transform="translate(194,226)"/>
<path d="M0 0 C0.66 0.33 1.32 0.66 2 1 C1.9375 3.1875 1.9375 3.1875 1 6 C-1.56685645 8.38627358 -4.38918448 11 -8 11 C-10.00212229 11.32033957 -12.00239695 11.65259077 -14 12 C-9.73412126 7.45890328 -4.96387672 3.75264754 0 0 Z " fill="#434141" transform="translate(162,32)"/>
<path d="M0 0 C-1.36983503 3.16115776 -1.9890638 3.9927092 -5 6 C-7.1875 5.625 -7.1875 5.625 -9 5 C-7.35234966 0.05704899 -4.76872479 -0.25776891 0 0 Z M-10 6 C-9.34 6 -8.68 6 -8 6 C-8.50603992 8.16874252 -8.99983813 9.99967627 -10 12 C-10.99 11.67 -11.98 11.34 -13 11 C-11.125 7.125 -11.125 7.125 -10 6 Z " fill="#131111" transform="translate(189,81)"/>
<path d="M0 0 C0.625 1.875 0.625 1.875 1 4 C0.34 4.66 -0.32 5.32 -1 6 C-3.49503252 8.93166321 -5.86361656 11.79542484 -8 15 C-8.99 15 -9.98 15 -11 15 C-9.58319756 10.67953102 -7.46236215 7.99538801 -4.375 4.6875 C-3.55773437 3.80449219 -2.74046875 2.92148437 -1.8984375 2.01171875 C-0.95871094 1.01591797 -0.95871094 1.01591797 0 0 Z " fill="#4F4E4D" transform="translate(141,50)"/>
<path d="M0 0 C0.66 0 1.32 0 2 0 C1.39644592 3.85025879 0.23227397 6.86101159 -1.5625 10.3125 C-2.01753906 11.19550781 -2.47257813 12.07851562 -2.94140625 12.98828125 C-3.29074219 13.65214844 -3.64007813 14.31601563 -4 15 C-6.56687367 11.1496895 -5.83288724 9.41430237 -5 5 C-3.35 4.67 -1.7 4.34 0 4 C0 2.68 0 1.36 0 0 Z " fill="#545150" transform="translate(206,181)"/>
<path d="M0 0 C0 3.10551666 -0.5393715 4.35261084 -2 7 C-2.66 7 -3.32 7 -4 7 C-4 7.66 -4 8.32 -4 9 C-6.88229224 10.92152816 -9.90127153 12.46387819 -13 14 C-8.88380164 9.08064098 -4.59589638 4.47352044 0 0 Z " fill="#5E5C5D" transform="translate(195,221)"/>
<path d="M0 0 C-0.33 1.32 -0.66 2.64 -1 4 C-1.639375 4.12375 -2.27875 4.2475 -2.9375 4.375 C-3.9584375 4.684375 -3.9584375 4.684375 -5 5 C-5.33 5.66 -5.66 6.32 -6 7 C-6 6.34 -6 5.68 -6 5 C-7.32 5.33 -8.64 5.66 -10 6 C-9.01958581 3.54896452 -8.3486182 2.23241214 -6.125 0.75 C-4 0 -4 0 0 0 Z " fill="#222021" transform="translate(180,24)"/>
<path d="M0 0 C1.65 0.33 3.3 0.66 5 1 C3.25 6.75 3.25 6.75 1 9 C-0.61949011 6.42786866 -1.04408751 5.32330841 -0.625 2.25 C-0.41875 1.5075 -0.2125 0.765 0 0 Z " fill="#2D2B2A" transform="translate(122,188)"/>
<path d="M0 0 C0.99 0.33 1.98 0.66 3 1 C2.06558465 2.27310312 1.12732889 3.543388 0.1875 4.8125 C-0.33457031 5.52019531 -0.85664063 6.22789063 -1.39453125 6.95703125 C-2.83128877 8.78531393 -4.31815763 10.39896688 -6 12 C-6 10.35 -6 8.7 -6 7 C-4.68 6.67 -3.36 6.34 -2 6 C-1.855625 5.195625 -1.71125 4.39125 -1.5625 3.5625 C-1 1 -1 1 0 0 Z " fill="#555251" transform="translate(166,81)"/>
<path d="M0 0 C-0.33 0.99 -0.66 1.98 -1 3 C-1.66 3 -2.32 3 -3 3 C-3.4640625 3.928125 -3.4640625 3.928125 -3.9375 4.875 C-4.625 6.25 -5.3125 7.625 -6 9 C-6.99 8.67 -7.98 8.34 -9 8 C-4.45945946 0 -4.45945946 0 0 0 Z " fill="#13100F" transform="translate(159,190)"/>
<path d="M0 0 C-0.928125 0.763125 -1.85625 1.52625 -2.8125 2.3125 C-4.98276101 4.11848552 -7.05568065 5.9476629 -9 8 C-9.33 7.01 -9.66 6.02 -10 5 C-6.9064303 0.51965767 -5.37804653 -1.61341396 0 0 Z " fill="#615F5C" transform="translate(178,74)"/>
<path d="M0 0 C0.99 0.66 1.98 1.32 3 2 C1.35 3.65 -0.3 5.3 -2 7 C-2.99 6.67 -3.98 6.34 -5 6 C-5 5.01 -5 4.02 -5 3 C-2.5 1.3125 -2.5 1.3125 0 0 Z " fill="#5F5C5B" transform="translate(143,184)"/>
<path d="M0 0 C0.66 0 1.32 0 2 0 C2.38218767 1.65614657 2.71395102 3.32457024 3 5 C2.67 5.33 2.34 5.66 2 6 C2.33 6.66 2.66 7.32 3 8 C2.0625 10.125 2.0625 10.125 1 12 C-0.47075246 7.58774263 -1.36884358 4.51718381 0 0 Z " fill="#4A4849" transform="translate(170,100)"/>
<path d="M0 0 C0.33 1.32 0.66 2.64 1 4 C0.50628906 4.40992187 0.01257813 4.81984375 -0.49609375 5.2421875 C-1.13675781 5.78101562 -1.77742187 6.31984375 -2.4375 6.875 C-3.07558594 7.40867187 -3.71367187 7.94234375 -4.37109375 8.4921875 C-6.10805004 9.9222757 -6.10805004 9.9222757 -7 12 C-7.66 12 -8.32 12 -9 12 C-7.55575365 8.76138697 -5.74227753 6.38030837 -3.375 3.75 C-2.74335938 3.04359375 -2.11171875 2.3371875 -1.4609375 1.609375 C-0.97882813 1.07828125 -0.49671875 0.5471875 0 0 Z " fill="#6E6D6E" transform="translate(180,83)"/>
<path d="M0 0 C8.58 0 17.16 0 26 0 C26 0.33 26 0.66 26 1 C17.42 1 8.84 1 0 1 C0 0.67 0 0.34 0 0 Z " fill="#FFFFFF" transform="translate(255,10)"/>
<path d="M0 0 C0.66 0.33 1.32 0.66 2 1 C0.90220176 2.15193623 -0.20349446 3.29634937 -1.3125 4.4375 C-1.92738281 5.07558594 -2.54226562 5.71367187 -3.17578125 6.37109375 C-5 8 -5 8 -8 9 C-7.61479436 6.46089803 -7.29902057 5.27248877 -5.37109375 3.515625 C-4.73300781 3.09796875 -4.09492187 2.6803125 -3.4375 2.25 C-2.79683594 1.82203125 -2.15617187 1.3940625 -1.49609375 0.953125 C-1.00238281 0.63859375 -0.50867187 0.3240625 0 0 Z " fill="#ECEAEA" transform="translate(62,131)"/>
<path d="M0 0 C0.33 1.32 0.66 2.64 1 4 C-0.65 5.32 -2.3 6.64 -4 8 C-3.67 5.69 -3.34 3.38 -3 1 C-2.01 0.67 -1.02 0.34 0 0 Z " fill="#3E3B39" transform="translate(133,41)"/>
<path d="M0 0 C2.475 0.99 2.475 0.99 5 2 C0.25 6.875 0.25 6.875 -2 8 C-2 6.68 -2 5.36 -2 4 C-1.34 4 -0.68 4 0 4 C0 2.68 0 1.36 0 0 Z " fill="#5F5E5A" transform="translate(148,25)"/>
<path d="M0 0 C0.99 0.33 1.98 0.66 3 1 C0.69 3.31 -1.62 5.62 -4 8 C-4.66 7.34 -5.32 6.68 -6 6 C-4.6875 4 -4.6875 4 -3 2 C-2.01 2 -1.02 2 0 2 C0 1.34 0 0.68 0 0 Z " fill="#4C4A48" transform="translate(185,215)"/>
<path d="M0 0 C-4.95 2.97 -4.95 2.97 -10 6 C-9 2 -9 2 -6.6875 0.1875 C-4 -1 -4 -1 0 0 Z " fill="#5F5D5A" transform="translate(192,64)"/>
<path d="M0 0 C0.66 0.33 1.32 0.66 2 1 C1.67 2.65 1.34 4.3 1 6 C-0.32 6 -1.64 6 -3 6 C-3.33 5.01 -3.66 4.02 -4 3 C-2.68 2.01 -1.36 1.02 0 0 Z " fill="#3D3A3C" transform="translate(162,32)"/>
<path d="M0 0 C0.99 0.99 1.98 1.98 3 3 C1.515 5.475 1.515 5.475 0 8 C-0.66 7.01 -1.32 6.02 -2 5 C-1.125 2.3125 -1.125 2.3125 0 0 Z " fill="#454241" transform="translate(198,194)"/>
<path d="M0 0 C2 1 2 1 5 3 C5 3.66 5 4.32 5 5 C1.25 6.125 1.25 6.125 -1 5 C-0.67 3.35 -0.34 1.7 0 0 Z " fill="#120F0E" transform="translate(125,192)"/>
<path d="M0 0 C1 2 1 2 1 6 C0.01 7.485 0.01 7.485 -1 9 C-1.99 9 -2.98 9 -4 9 C-2.94124926 5.59687262 -1.99097846 2.98646769 0 0 Z " fill="#575556" transform="translate(126,69)"/>
<path d="M0 0 C2.56616632 3.84924948 2.55097676 6.4349304 3 11 C0 9 0 9 -0.75 5.5 C-1 2 -1 2 0 0 Z " fill="#6D6C6B" transform="translate(211,98)"/>
<path d="M0 0 C1.32 0.33 2.64 0.66 4 1 C2.02 3.31 0.04 5.62 -2 8 C-2.66 7.67 -3.32 7.34 -4 7 C-3.525625 6.401875 -3.05125 5.80375 -2.5625 5.1875 C-0.83534256 2.99617076 -0.83534256 2.99617076 0 0 Z " fill="#110F0E" transform="translate(140,53)"/>
<path d="M0 0 C1.67542976 0.28604898 3.34385343 0.61781233 5 1 C0.25 5 0.25 5 -2 5 C-1.125 1.125 -1.125 1.125 0 0 Z " fill="#52514F" transform="translate(156,238)"/>
<path d="M0 0 C0.66 0 1.32 0 2 0 C1.53199289 4.05606165 1.12046792 7.46588679 -1 11 C-1.125 3.375 -1.125 3.375 0 0 Z " fill="#13110F" transform="translate(109,117)"/>
<path d="M0 0 C0.66 0.99 1.32 1.98 2 3 C-1.96 2.67 -5.92 2.34 -10 2 C-10 1.67 -10 1.34 -10 1 C-3.375 -1.125 -3.375 -1.125 0 0 Z " fill="#656363" transform="translate(112,53)"/>
<path d="M0 0 C0.33 0 0.66 0 1 0 C1.33 3.63 1.66 7.26 2 11 C0.68 10.34 -0.64 9.68 -2 9 C-1.34 6.03 -0.68 3.06 0 0 Z " fill="#7B7A79" transform="translate(149,143)"/>
<path d="M0 0 C0.66 1.32 1.32 2.64 2 4 C0.625 6 0.625 6 -1 8 C-1.66 8 -2.32 8 -3 8 C-1.125 1.125 -1.125 1.125 0 0 Z " fill="#4A4948" transform="translate(121,78)"/>
<path d="M0 0 C1 4 1 4 1 8 C-0.32 8.33 -1.64 8.66 -3 9 C-2.01 6.03 -1.02 3.06 0 0 Z " fill="#71706F" transform="translate(169,165)"/>
<path d="M0 0 C0.33 0.66 0.66 1.32 1 2 C-1.31 3.65 -3.62 5.3 -6 7 C-6.66 6.67 -7.32 6.34 -8 6 C-5.36 4.02 -2.72 2.04 0 0 Z " fill="#ECECEC" transform="translate(72,124)"/>
<path d="M0 0 C2.31 0 4.62 0 7 0 C7 0.33 7 0.66 7 1 C4.69 1 2.38 1 0 1 C0 0.67 0 0.34 0 0 Z " fill="#FFFFFF" transform="translate(302,10)"/>
<path d="M0 0 C2 1 2 1 2 1 Z " fill="#FFFFFF" transform="translate(299,10)"/>
<path d="" fill="#FFFFFF" transform="translate(0,0)"/>
</svg>
